<svg width="160" height="160" viewBox="0 0 160 160" fill="none" xmlns="http://www.w3.org/2000/svg">
<path d="M0 16C0 7.16345 7.16344 0 16 0H144C152.837 0 160 7.16344 160 16V144C160 152.837 152.837 160 144 160H16C7.16345 160 0 152.837 0 144V16Z" fill="url(#paint0_linear)"/>
<path fill-rule="evenodd" clip-rule="evenodd" d="M59.5573 114.49C58.7315 116.539 59.723 118.869 61.772 119.695C63.821 120.521 66.1515 119.53 66.9773 117.481L95.8872 45.7522C96.713 43.7032 95.7215 41.3728 93.6725 40.5469C91.6235 39.7211 89.293 40.7126 88.4672 42.7616L59.5573 114.49ZM69.9906 67.2036C65.096 59.6991 56.6266 54.7381 47.0001 54.7381C40.5392 54.7381 34.5963 56.9933 29.8725 60.7724L25.5449 56.4447C23.9906 57.7248 22.5582 59.1876 21.2477 60.7419L25.5753 65.0695C21.8268 69.7628 19.5715 75.7057 19.5715 82.1667C19.5715 97.3133 31.823 109.595 47.0001 109.595C49.1283 109.595 51.1989 109.354 53.1863 108.897L56.1976 101.426C53.4136 102.756 50.2948 103.5 47.0001 103.5C35.2058 103.5 25.6668 93.9609 25.6668 82.1667C25.6668 70.3724 35.2058 60.8333 47.0001 60.8333C56.1549 60.8333 63.9509 66.5806 66.9818 74.6687L69.9906 67.2036ZM56.143 45.5952H37.8572V51.6905H56.143V45.5952ZM43.9525 66.9286V85.2143H50.0477V66.9286H43.9525ZM84.6668 94.9917V112.595H120.222V85.9286H125.556V103.706C125.556 108.613 129.538 112.595 134.445 112.595C139.351 112.595 143.333 108.613 143.333 103.706V69.9286C143.333 67.4752 142.338 65.2352 140.738 63.6352L140.773 63.5997L127.547 50.373L123.778 54.1419L131.28 61.6441C127.938 62.9241 125.556 66.1241 125.556 69.9286C125.556 74.8352 129.538 78.8174 134.445 78.8174C135.725 78.8174 136.898 78.533 138 78.0708V103.706C138 105.662 136.4 107.262 134.445 107.262C132.489 107.262 130.889 105.662 130.889 103.706V87.7063C130.889 83.7952 127.689 80.5952 123.778 80.5952H120.222V55.7063C120.222 51.7952 117.022 48.5952 113.111 48.5952H103.366C103.346 48.6445 103.327 48.6936 103.307 48.7428L100.501 55.7063H113.111V73.4841H93.3353L84.6668 94.9917ZM130.889 69.9286C130.889 71.8841 132.489 73.4841 134.445 73.4841C136.4 73.4841 138 71.8841 138 69.9286C138 67.973 136.4 66.373 134.445 66.373C132.489 66.373 130.889 67.973 130.889 69.9286Z" fill="white"/>
<defs>
<linearGradient id="paint0_linear" x1="0" y1="79.9998" x2="162.098" y2="79.9998" gradientUnits="userSpaceOnUse">
<stop stop-color="#0074FD"/>
<stop offset="1" stop-color="#61A9FF"/>
</linearGradient>
</defs>
</svg>
