<svg width="24" height="24" viewBox="0 0 24 24" fill="none" xmlns="http://www.w3.org/2000/svg">
<path d="M22.0267 5.64L22.04 5.62667L17.08 0.666667L15.6667 2.08L18.48 4.89333C17.2267 5.37333 16.3333 6.57333 16.3333 8C16.3333 9.84 17.8267 11.3333 19.6667 11.3333C20.1467 11.3333 20.5867 11.2267 21 11.0533V20.6667C21 21.4 20.4 22 19.6667 22C18.9333 22 18.3333 21.4 18.3333 20.6667V14.6667C18.3333 13.2 17.1333 12 15.6667 12H14.3333V2.66667C14.3333 1.2 13.1333 0 11.6667 0H3.66667C2.2 0 1 1.2 1 2.66667V24H14.3333V14H16.3333V20.6667C16.3333 22.5067 17.8267 24 19.6667 24C21.5067 24 23 22.5067 23 20.6667V8C23 7.08 22.6267 6.24 22.0267 5.64ZM11.6667 9.33333H3.66667V2.66667H11.6667V9.33333ZM19.6667 9.33333C18.9333 9.33333 18.3333 8.73333 18.3333 8C18.3333 7.26667 18.9333 6.66667 19.6667 6.66667C20.4 6.66667 21 7.26667 21 8C21 8.73333 20.4 9.33333 19.6667 9.33333Z" fill="url(#paint0_linear)"/>
<defs>
<linearGradient id="paint0_linear" x1="1" y1="12" x2="23.2885" y2="12" gradientUnits="userSpaceOnUse">
<stop stop-color="#0074FD"/>
<stop offset="1" stop-color="#61A9FF"/>
</linearGradient>
</defs>
</svg>
