<svg width="24" height="24" viewBox="0 0 24 24" fill="none" xmlns="http://www.w3.org/2000/svg">
<path d="M15.4285 0H8.57138V2.28571H15.4285V0ZM10.8571 14.8571H13.1428V8H10.8571V14.8571ZM20.0342 7.30286L21.6571 5.68C21.1657 5.09714 20.6285 4.54857 20.0457 4.06857L18.4228 5.69143C16.6514 4.27429 14.4228 3.42857 11.9999 3.42857C6.31995 3.42857 1.71423 8.03429 1.71423 13.7143C1.71423 19.3943 6.30852 24 11.9999 24C17.6914 24 22.2857 19.3943 22.2857 13.7143C22.2857 11.2914 21.4399 9.06286 20.0342 7.30286ZM11.9999 21.7143C7.57709 21.7143 3.99995 18.1371 3.99995 13.7143C3.99995 9.29143 7.57709 5.71429 11.9999 5.71429C16.4228 5.71429 19.9999 9.29143 19.9999 13.7143C19.9999 18.1371 16.4228 21.7143 11.9999 21.7143Z" fill="url(#paint0_linear)"/>
<defs>
<linearGradient id="paint0_linear" x1="1.71423" y1="12" x2="22.5555" y2="12" gradientUnits="userSpaceOnUse">
<stop stop-color="#0074FD"/>
<stop offset="1" stop-color="#61A9FF"/>
</linearGradient>
</defs>
</svg>
